<?xml version="1.0" standalone="no"?>
<!DOCTYPE svg PUBLIC "-//W3C//DTD SVG 20010904//EN"
 "http://www.w3.org/TR/2001/REC-SVG-20010904/DTD/svg10.dtd">
<svg version="1.0" xmlns="http://www.w3.org/2000/svg"
 width="376.000000pt" height="562.000000pt" viewBox="0 0 376.000000 562.000000"
 preserveAspectRatio="xMidYMid meet">

<g transform="translate(0.000000,562.000000) scale(0.100000,-0.100000)"
fill="#000000" stroke="none">
<path d="M732 4944 c-12 -45 -9 -70 6 -48 4 6 16 11 27 11 11 0 23 -5 27 -11
12 -19 16 -2 11 47 -5 43 -8 47 -32 47 -23 0 -28 -6 -39 -46z m48 6 c0 -20 -5
-30 -15 -30 -17 0 -18 4 -9 38 9 32 24 27 24 -8z"/>
<path d="M940 4969 c9 -16 8 -25 -6 -40 -12 -13 -13 -19 -4 -19 7 0 19 8 26
18 12 16 13 16 19 0 9 -23 25 -23 25 -1 0 15 1 15 18 0 26 -24 33 -21 20 8 -8
19 -8 28 2 40 17 20 -4 20 -24 -1 -15 -14 -20 -11 -17 9 0 4 -3 7 -9 7 -5 0
-10 -7 -10 -15 0 -8 -4 -15 -9 -15 -5 0 -11 7 -15 15 -3 8 -10 15 -16 15 -7 0
-7 -6 0 -21z"/>
<path d="M1170 4950 c0 -39 1 -40 33 -39 23 1 26 3 10 6 -28 5 -30 23 -3 23
11 0 20 5 20 10 0 6 -9 10 -20 10 -27 0 -25 18 3 23 16 3 13 5 -10 6 -32 1
-33 0 -33 -39z"/>
<path d="M1362 4950 c0 -25 2 -37 5 -27 5 21 43 23 43 2 0 -8 5 -15 10 -15 6
0 10 18 10 40 0 22 -4 40 -10 40 -5 0 -10 -7 -10 -15 0 -21 -38 -19 -43 3 -3
9 -5 -3 -5 -28z"/>
<path d="M1700 4975 c-26 -31 9 -81 48 -68 20 7 14 20 -10 19 -18 -1 -23 5
-23 24 0 19 5 25 23 24 12 0 22 3 22 8 0 14 -47 9 -60 -7z"/>
<path d="M1890 4943 l1 -48 22 28 c28 33 34 34 40 5 2 -13 5 -4 6 20 1 47 -9
53 -32 20 l-16 -23 0 23 c-1 12 -5 22 -11 22 -5 0 -10 -21 -10 -47z"/>
<path d="M2090 4944 c0 -27 4 -43 10 -39 6 3 10 13 10 21 0 8 7 14 15 14 8 0
15 -7 15 -15 0 -8 5 -15 10 -15 6 0 10 18 10 40 0 22 -4 40 -10 40 -5 0 -10
-7 -10 -15 0 -8 -7 -15 -15 -15 -8 0 -15 7 -15 15 0 8 -4 15 -10 15 -5 0 -10
-21 -10 -46z"/>
<path d="M2290 4970 c-19 -35 13 -73 53 -62 24 6 21 22 -4 19 -28 -3 -50 30
-29 43 8 5 23 7 33 4 9 -3 17 -1 17 5 0 20 -59 12 -70 -9z"/>
<path d="M2480 4950 c0 -40 0 -40 38 -39 30 2 32 3 10 6 -32 5 -38 23 -8 23
11 0 20 5 20 10 0 6 -9 10 -20 10 -30 0 -24 18 8 23 22 3 20 4 -10 6 -38 1
-38 1 -38 -39z"/>
<path d="M2670 4951 c0 -23 5 -41 10 -41 6 0 10 3 10 8 0 4 10 12 23 17 12 6
22 19 22 30 0 15 -8 21 -32 23 -32 3 -33 2 -33 -37z m48 11 c2 -7 -3 -12 -12
-12 -9 0 -16 7 -16 16 0 17 22 14 28 -4z"/>
<path d="M2859 4966 c-16 -35 3 -58 45 -54 28 3 31 6 31 38 0 32 -3 35 -32 38
-27 3 -35 -1 -44 -22z m59 2 c14 -14 -2 -48 -22 -48 -19 0 -29 30 -15 46 14
17 22 17 37 2z"/>
<path d="M882 4710 c0 -14 2 -19 5 -12 2 6 2 18 0 25 -3 6 -5 1 -5 -13z"/>
<path d="M2474 4710 c0 -13 4 -16 10 -10 7 7 7 13 0 20 -6 6 -10 3 -10 -10z"/>
<path d="M2652 4700 c0 -19 2 -27 5 -17 2 9 2 25 0 35 -3 9 -5 1 -5 -18z"/>
<path d="M961 4704 c0 -11 3 -14 6 -6 3 7 2 16 -1 19 -3 4 -6 -2 -5 -13z"/>
<path d="M1820 4694 c0 -14 4 -23 9 -20 5 3 7 15 4 26 -7 28 -13 25 -13 -6z"/>
<path d="M1850 4709 c0 -5 5 -7 10 -4 6 3 10 8 10 11 0 2 -4 4 -10 4 -5 0 -10
-5 -10 -11z"/>
<path d="M1900 4694 c0 -14 4 -23 9 -20 5 3 7 15 4 26 -7 28 -13 25 -13 -6z"/>
<path d="M2026 4705 c-3 -9 -6 -22 -5 -28 0 -7 5 -1 10 12 5 13 8 26 5 28 -2
2 -6 -3 -10 -12z"/>
<path d="M2057 4700 c-3 -11 -1 -23 4 -26 5 -3 9 6 9 20 0 31 -6 34 -13 6z"/>
<path d="M2190 4700 c-6 -12 -9 -24 -7 -27 3 -2 11 5 17 17 6 12 9 24 7 27 -3
2 -11 -5 -17 -17z"/>
<path d="M2452 4695 c0 -16 2 -22 5 -12 2 9 2 23 0 30 -3 6 -5 -1 -5 -18z"/>
<path d="M2702 4695 c0 -16 2 -22 5 -12 2 9 2 23 0 30 -3 6 -5 -1 -5 -18z"/>
<path d="M2750 4712 c0 -5 7 -15 15 -22 8 -7 15 -9 15 -6 0 4 -7 14 -15 22 -8
9 -15 11 -15 6z"/>
<path d="M2792 4695 c0 -16 2 -22 5 -12 2 9 2 23 0 30 -3 6 -5 -1 -5 -18z"/>
<path d="M1000 4687 c0 -13 3 -17 8 -11 4 6 14 13 22 16 10 3 8 6 -8 10 -18 5
-22 2 -22 -15z"/>
<path d="M1451 4694 c0 -11 3 -14 6 -6 3 7 2 16 -1 19 -3 4 -6 -2 -5 -13z"/>
<path d="M1538 4698 c5 -5 16 -8 23 -6 8 3 3 7 -10 11 -17 4 -21 3 -13 -5z"/>
<path d="M2323 4695 c-3 -9 -3 -18 -1 -21 3 -3 8 4 11 16 6 23 -1 27 -10 5z"/>
<path d="M2411 4694 c0 -11 3 -14 6 -6 3 7 2 16 -1 19 -3 4 -6 -2 -5 -13z"/>
<path d="M808 4693 c7 -3 16 -2 19 1 4 3 -2 6 -13 5 -11 0 -14 -3 -6 -6z"/>
<path d="M1610 4685 c0 -8 2 -15 4 -15 2 0 6 7 10 15 3 8 1 15 -4 15 -6 0 -10
-7 -10 -15z"/>
<path d="M2217 4693 c-4 -3 -7 -11 -7 -17 0 -6 5 -5 12 2 6 6 9 14 7 17 -3 3
-9 2 -12 -2z"/>
<path d="M2530 4696 c0 -2 7 -7 16 -10 8 -3 12 -2 9 4 -6 10 -25 14 -25 6z"/>
<path d="M1145 4680 c3 -5 8 -10 11 -10 2 0 4 5 4 10 0 6 -5 10 -11 10 -5 0
-7 -4 -4 -10z"/>
<path d="M660 2930 l0 -1180 1190 0 1190 0 0 1180 0 1180 -1190 0 -1190 0 0
-1180z m2300 0 l0 -1110 -1108 0 -1109 0 -7 1101 c-3 605 -4 1104 -1 1110 4 5
426 9 1116 9 l1109 0 0 -1110z"/>
<path d="M2313 3479 c-130 -144 -245 -272 -256 -285 -22 -28 -37 -31 -35 -6 1
9 0 135 0 280 l-2 262 -45 0 -45 0 0 -392 0 -391 21 19 c12 10 78 82 148 159
69 77 134 149 144 160 11 11 62 68 115 128 53 59 99 107 104 107 4 0 8 -126 8
-280 l0 -280 45 0 45 0 0 390 c0 215 -2 390 -5 390 -2 0 -111 -117 -242 -261z"/>
<path d="M1167 3723 c-4 -3 -7 -174 -7 -380 l0 -373 45 0 45 0 2 168 3 167
208 3 207 2 0 -170 0 -170 50 0 50 0 -2 378 -3 377 -45 0 -45 0 -3 -168 -2
-167 -208 2 -207 3 -3 168 -2 167 -39 0 c-21 0 -41 -3 -44 -7z"/>
<path d="M1379 2842 c-111 -30 -207 -112 -257 -220 -24 -50 -27 -69 -27 -162
0 -100 2 -109 34 -173 80 -159 232 -241 409 -222 65 7 207 69 207 90 0 6 -10
24 -23 40 -19 24 -26 27 -40 17 -84 -59 -206 -79 -297 -49 -209 72 -272 363
-111 522 60 59 124 85 211 85 74 0 122 -13 169 -45 20 -14 40 -25 45 -25 4 0
18 14 31 32 l23 31 -28 23 c-79 62 -232 87 -346 56z"/>
<path d="M2760 2825 c0 -14 5 -25 10 -25 6 0 10 11 10 25 0 14 -4 25 -10 25
-5 0 -10 -11 -10 -25z"/>
<path d="M1930 2476 c0 -200 2 -371 6 -380 9 -23 223 -23 305 0 173 49 236
239 122 365 -59 65 -102 82 -225 87 l-108 5 0 143 0 144 -50 0 -49 0 -1 -364z
m318 -36 c52 -29 72 -66 72 -130 0 -47 -4 -56 -38 -90 -42 -42 -114 -63 -199
-58 l-48 3 -3 154 -3 154 91 -6 c66 -4 100 -12 128 -27z"/>
<path d="M2470 2460 l0 -380 45 0 45 0 0 380 0 380 -45 0 -45 0 0 -380z"/>
<path d="M2700 2810 c0 -12 40 -34 47 -26 9 8 -17 36 -33 36 -8 0 -14 -4 -14
-10z"/>
<path d="M2806 2804 c-9 -8 -16 -17 -16 -19 0 -9 44 13 48 23 5 17 -14 15 -32
-4z"/>
<path d="M2760 2774 c0 -8 5 -14 12 -14 6 0 20 -8 30 -17 13 -11 22 -13 29 -6
7 7 -2 16 -30 30 -32 16 -41 17 -41 7z"/>
<path d="M2715 2749 c-12 -19 5 -23 22 -6 16 16 16 17 1 17 -9 0 -20 -5 -23
-11z"/>
<path d="M2767 2743 c-11 -10 -8 -43 3 -43 6 0 10 11 10 25 0 26 -2 29 -13 18z"/>
<path d="M802 1045 c0 -22 2 -32 5 -22 2 9 11 17 20 17 9 0 13 -6 9 -15 -3 -8
-1 -15 4 -15 6 0 10 16 10 35 0 27 -4 35 -17 34 -11 0 -13 -3 -5 -6 17 -7 15
-23 -2 -23 -8 0 -17 8 -19 18 -3 9 -5 -1 -5 -23z"/>
<path d="M892 1054 c9 -3 19 -15 22 -27 4 -18 4 -18 3 3 -1 17 -8 25 -22 27
-14 1 -15 0 -3 -3z"/>
<path d="M944 1045 c-3 -8 -4 -20 -1 -27 3 -7 6 -3 6 9 1 12 9 24 19 26 16 4
16 5 -1 6 -10 0 -20 -6 -23 -14z"/>
<path d="M1008 1053 c6 -2 18 -2 25 0 6 3 1 5 -13 5 -14 0 -19 -2 -12 -5z"/>
<path d="M1072 1053 c9 -2 19 -14 21 -26 4 -18 5 -17 6 6 1 22 -3 27 -21 26
-16 -1 -18 -3 -6 -6z"/>
<path d="M1121 1044 c0 -11 3 -14 6 -6 3 7 2 16 -1 19 -3 4 -6 -2 -5 -13z"/>
<path d="M1152 1035 c0 -16 2 -22 5 -12 2 9 2 23 0 30 -3 6 -5 -1 -5 -18z"/>
<path d="M1220 1049 c0 -6 -7 -9 -15 -5 -9 3 -15 0 -15 -10 0 -9 5 -12 11 -8
6 3 15 0 20 -7 6 -10 9 -6 9 14 0 15 -2 27 -5 27 -3 0 -5 -5 -5 -11z"/>
<path d="M1275 1051 l20 -8 -20 -5 c-18 -5 -17 -6 3 -7 29 -1 25 23 -4 26 -18
3 -18 2 1 -6z"/>
<path d="M1327 1053 c-10 -10 -8 -23 4 -23 5 0 7 5 4 10 -3 6 -2 10 4 10 5 0
12 -10 14 -22 4 -20 4 -19 6 5 1 26 -16 37 -32 20z"/>
<path d="M1431 1033 c0 -25 1 -26 9 -8 12 27 12 35 0 35 -5 0 -10 -12 -9 -27z"/>
<path d="M1471 1053 c0 -5 4 -17 9 -28 8 -18 9 -17 9 8 1 15 -3 27 -9 27 -5 0
-10 -3 -9 -7z"/>
<path d="M1577 1028 c-6 -43 1 -50 9 -10 8 38 24 43 24 8 0 -14 5 -28 12 -32
8 -5 9 -2 5 10 -4 10 -7 26 -7 37 0 12 -7 19 -19 19 -13 0 -20 -9 -24 -32z"/>
<path d="M1652 1018 l1 -43 4 38 c3 29 8 37 19 33 8 -3 14 -1 14 4 0 6 -9 10
-20 10 -17 0 -20 -6 -18 -42z"/>
<path d="M1732 1054 c9 -3 19 -15 22 -27 4 -18 4 -18 3 3 -1 17 -8 25 -22 27
-14 1 -15 0 -3 -3z"/>
<path d="M1781 1033 c1 -23 2 -24 6 -6 2 12 12 24 21 26 12 3 10 5 -5 6 -19 1
-23 -4 -22 -26z"/>
<path d="M1848 1053 c6 -2 18 -2 25 0 6 3 1 5 -13 5 -14 0 -19 -2 -12 -5z"/>
<path d="M1901 1035 c-1 -23 2 -27 9 -15 9 13 11 13 20 0 8 -13 10 -12 10 3 0
9 -6 17 -14 17 -8 0 -17 6 -19 13 -3 6 -6 -1 -6 -18z"/>
<path d="M2052 1035 c0 -16 2 -22 5 -12 2 9 2 23 0 30 -3 6 -5 -1 -5 -18z"/>
<path d="M2114 1045 c-3 -8 -4 -20 -1 -27 3 -7 6 -3 6 9 1 12 9 24 19 26 16 4
16 5 -1 6 -10 0 -20 -6 -23 -14z"/>
<path d="M2176 1052 c7 -4 14 -16 16 -27 3 -17 5 -15 10 8 4 23 2 27 -16 27
-13 0 -16 -3 -10 -8z"/>
<path d="M2234 1045 c-3 -8 -4 -20 -1 -27 3 -7 6 -3 6 10 1 12 5 22 10 22 5 0
12 -10 14 -22 4 -20 4 -19 6 5 1 29 -25 39 -35 12z"/>
<path d="M2302 1018 l1 -43 4 37 c3 24 10 38 21 41 12 3 11 5 -5 6 -21 1 -23
-3 -21 -41z"/>
<path d="M2385 1051 l20 -10 -20 -1 c-15 -1 -16 -3 -5 -7 8 -3 19 -11 23 -17
4 -6 7 0 5 14 -2 16 -10 26 -23 27 l-20 3 20 -9z"/>
<path d="M2430 1046 c0 -8 5 -18 12 -22 7 -5 9 -2 5 9 -4 10 0 17 11 20 12 3
11 5 -5 6 -14 1 -23 -5 -23 -13z"/>
<path d="M2541 1033 c1 -23 2 -24 6 -6 2 12 12 24 21 26 12 3 10 5 -5 6 -19 1
-23 -4 -22 -26z"/>
<path d="M2601 1038 c1 -17 2 -19 6 -5 6 24 21 21 26 -5 4 -20 4 -19 6 5 1 21
-4 27 -19 27 -14 0 -20 -6 -19 -22z"/>
<path d="M2679 1051 c7 -5 9 -10 3 -12 -6 -2 -4 -9 4 -17 12 -11 14 -9 14 13
0 17 -5 25 -17 25 -14 0 -15 -2 -4 -9z"/>
<path d="M2731 1033 c1 -22 2 -23 6 -8 3 11 10 23 17 27 7 5 5 8 -6 8 -13 0
-18 -7 -17 -27z"/>
<path d="M2791 1038 c-1 -31 13 -37 24 -10 7 16 8 15 15 -3 7 -17 9 -16 9 9 1
28 0 28 -18 12 -18 -17 -19 -17 -24 1 -3 12 -5 9 -6 -9z"/>
<path d="M2868 1053 c6 -2 18 -2 25 0 6 3 1 5 -13 5 -14 0 -19 -2 -12 -5z"/>
<path d="M1531 1033 c-7 -8 -10 -17 -7 -20 3 -3 0 -13 -7 -21 -10 -13 -9 -14
1 -8 12 7 36 56 30 61 -2 2 -9 -4 -17 -12z"/>
<path d="M876 1027 c3 -10 9 -15 12 -12 3 3 0 11 -7 18 -10 9 -11 8 -5 -6z"/>
<path d="M1450 1030 c0 -5 5 -10 10 -10 6 0 10 5 10 10 0 6 -4 10 -10 10 -5 0
-10 -4 -10 -10z"/>
<path d="M2331 1024 c0 -11 3 -14 6 -6 3 7 2 16 -1 19 -3 4 -6 -2 -5 -13z"/>
<path d="M806 887 c-21 -16 -18 -61 4 -63 9 0 10 1 3 3 -19 6 -16 44 5 59 22
17 11 18 -12 1z"/>
<path d="M912 860 c0 -14 2 -19 5 -12 2 6 2 18 0 25 -3 6 -5 1 -5 -13z"/>
<path d="M1120 860 c0 -11 2 -20 4 -20 2 0 6 9 9 20 3 11 1 20 -4 20 -5 0 -9
-9 -9 -20z"/>
<path d="M1182 868 c-16 -16 -15 -28 1 -28 7 0 13 9 13 20 0 11 -1 20 -1 20
-1 0 -6 -5 -13 -12z"/>
<path d="M1320 871 c0 -6 4 -13 10 -16 6 -3 7 1 4 9 -7 18 -14 21 -14 7z"/>
<path d="M1629 858 c9 -23 8 -28 -5 -28 -8 0 -13 4 -10 8 2 4 1 14 -5 22 -6
11 -9 8 -9 -13 0 -24 4 -28 23 -25 23 3 26 32 6 53 -6 6 -6 -1 0 -17z"/>
<path d="M2029 848 c4 -28 6 -29 9 -9 2 13 0 27 -5 32 -6 6 -7 -3 -4 -23z"/>
<path d="M2394 860 c0 -13 4 -16 10 -10 7 7 7 13 0 20 -6 6 -10 3 -10 -10z"/>
<path d="M870 842 c-21 -42 -22 -42 -16 -42 8 0 38 61 33 66 -2 2 -10 -8 -17
-24z"/>
<path d="M940 851 c0 -13 -8 -21 -22 -23 -19 -3 -18 -5 7 -9 29 -5 31 -3 27
23 -5 32 -12 37 -12 9z"/>
<path d="M971 848 c-1 -22 4 -28 19 -28 13 0 20 6 19 18 0 10 -3 12 -6 5 -8
-20 -21 -15 -26 10 -4 19 -4 18 -6 -5z"/>
<path d="M1270 850 c0 -11 -7 -20 -16 -20 -9 0 -12 5 -8 13 5 9 4 9 -6 0 -19
-18 -8 -32 18 -22 13 5 22 17 22 29 0 11 -2 20 -5 20 -3 0 -5 -9 -5 -20z"/>
<path d="M1292 848 c2 -14 11 -24 23 -25 17 -2 17 -1 2 3 -13 4 -17 12 -14 25
3 10 1 19 -5 19 -5 0 -8 -10 -6 -22z"/>
<path d="M1350 843 c0 -21 3 -24 9 -14 5 8 7 20 4 28 -8 21 -13 15 -13 -14z"/>
<path d="M1392 845 c0 -16 2 -22 5 -12 2 9 2 23 0 30 -3 6 -5 -1 -5 -18z"/>
<path d="M1450 848 c0 -23 4 -28 23 -27 17 1 18 2 4 6 -9 2 -15 8 -13 12 3 4
1 13 -5 21 -6 11 -9 8 -9 -12z"/>
<path d="M1481 854 c0 -11 3 -14 6 -6 3 7 2 16 -1 19 -3 4 -6 -2 -5 -13z"/>
<path d="M1661 848 c-1 -23 3 -28 22 -27 15 1 17 3 5 6 -9 2 -19 14 -21 26 -4
18 -5 17 -6 -5z"/>
<path d="M1720 844 c0 -14 4 -23 9 -20 5 3 7 15 4 26 -7 28 -13 25 -13 -6z"/>
<path d="M1751 863 c0 -5 4 -17 9 -28 8 -18 9 -17 9 8 1 15 -3 27 -9 27 -5 0
-10 -3 -9 -7z"/>
<path d="M1793 859 c3 -9 0 -23 -6 -30 -10 -11 -9 -11 5 -1 13 10 17 10 21 0
3 -7 6 -8 6 -2 1 5 -6 19 -15 30 -12 14 -14 15 -11 3z"/>
<path d="M1875 859 c-4 -6 -5 -12 -2 -15 2 -3 7 2 10 11 7 17 1 20 -8 4z"/>
<path d="M1930 844 c0 -14 4 -23 9 -20 5 3 7 15 4 26 -7 28 -13 25 -13 -6z"/>
<path d="M1960 860 c0 -5 5 -10 10 -10 6 0 10 5 10 10 0 6 -4 10 -10 10 -5 0
-10 -4 -10 -10z"/>
<path d="M1998 847 c-3 -19 -2 -25 4 -19 6 6 8 18 6 28 -3 14 -5 12 -10 -9z"/>
<path d="M2087 850 c6 -22 -12 -28 -20 -7 -3 7 -6 5 -6 -5 -1 -12 6 -18 19
-18 21 0 29 33 11 44 -5 4 -7 -3 -4 -14z"/>
<path d="M2131 861 c-7 -5 -11 -15 -9 -22 3 -10 8 -7 17 9 13 24 12 26 -8 13z"/>
<path d="M2237 863 c-3 -5 -1 -17 4 -28 7 -17 8 -17 8 8 1 27 -4 34 -12 20z"/>
<path d="M2312 845 c0 -16 2 -22 5 -12 2 9 2 23 0 30 -3 6 -5 -1 -5 -18z"/>
<path d="M2342 845 c0 -16 2 -22 5 -12 2 9 2 23 0 30 -3 6 -5 -1 -5 -18z"/>
<path d="M2371 848 c-1 -23 3 -28 22 -27 15 1 17 3 5 6 -9 2 -19 14 -21 26 -4
18 -5 17 -6 -5z"/>
<path d="M2502 845 c0 -16 2 -22 5 -12 2 9 2 23 0 30 -3 6 -5 -1 -5 -18z"/>
<path d="M2561 853 c-1 -12 -9 -24 -18 -26 -17 -4 -17 -5 0 -6 19 -1 32 21 24
41 -3 7 -6 3 -6 -9z"/>
<path d="M2640 848 c0 -23 4 -28 25 -28 27 0 29 4 14 35 -9 19 -9 18 -5 -2 3
-16 -1 -23 -11 -23 -8 0 -12 4 -9 8 2 4 1 14 -5 22 -6 11 -9 8 -9 -12z"/>
<path d="M2704 845 c1 -11 9 -21 19 -23 20 -4 34 25 19 40 -8 8 -9 5 -5 -11 4
-15 1 -21 -10 -21 -9 0 -17 8 -20 18 -3 13 -4 12 -3 -3z"/>
<path d="M2860 860 c0 -5 -6 -10 -14 -10 -8 0 -17 -7 -20 -16 -6 -14 -4 -15
10 -4 13 12 17 11 25 -1 6 -10 9 -7 9 14 0 15 -2 27 -5 27 -3 0 -5 -4 -5 -10z"/>
<path d="M2917 863 c-3 -5 -1 -17 4 -28 7 -17 8 -17 8 8 1 27 -4 34 -12 20z"/>
<path d="M1145 841 c3 -5 -3 -12 -12 -14 -14 -4 -13 -5 5 -6 13 -1 22 5 22 14
0 8 -5 15 -11 15 -5 0 -8 -4 -4 -9z"/>
<path d="M2211 834 c0 -11 3 -14 6 -6 3 7 2 16 -1 19 -3 4 -6 -2 -5 -13z"/>
<path d="M2891 834 c0 -11 3 -14 6 -6 3 7 2 16 -1 19 -3 4 -6 -2 -5 -13z"/>
<path d="M1070 830 c0 -5 5 -10 10 -10 6 0 10 5 10 10 0 6 -4 10 -10 10 -5 0
-10 -4 -10 -10z"/>
<path d="M1188 823 c7 -3 16 -2 19 1 4 3 -2 6 -13 5 -11 0 -14 -3 -6 -6z"/>
<path d="M1558 823 c7 -3 16 -2 19 1 4 3 -2 6 -13 5 -11 0 -14 -3 -6 -6z"/>
<path d="M1888 823 c7 -3 16 -2 19 1 4 3 -2 6 -13 5 -11 0 -14 -3 -6 -6z"/>
<path d="M2598 823 c7 -3 16 -2 19 1 4 3 -2 6 -13 5 -11 0 -14 -3 -6 -6z"/>
<path d="M808 683 c7 -3 16 -2 19 1 4 3 -2 6 -13 5 -11 0 -14 -3 -6 -6z"/>
<path d="M862 684 c9 -3 19 -15 22 -27 4 -18 4 -18 3 3 -1 17 -8 25 -22 27
-14 1 -15 0 -3 -3z"/>
<path d="M911 674 c0 -11 3 -14 6 -6 3 7 2 16 -1 19 -3 4 -6 -2 -5 -13z"/>
<path d="M939 669 c-6 -13 -7 -19 -1 -15 6 3 13 0 15 -6 3 -7 6 -1 6 15 1 32
-4 34 -20 6z"/>
<path d="M981 665 c0 -21 2 -26 8 -16 5 7 14 10 20 7 6 -4 11 -2 11 3 0 6 -6
11 -14 11 -8 0 -17 6 -19 13 -3 6 -6 -1 -6 -18z"/>
<path d="M1041 663 c0 -16 3 -22 6 -15 2 6 11 12 19 12 8 0 14 7 14 15 0 8 -9
15 -20 15 -15 0 -20 -6 -19 -27z"/>
<path d="M1100 665 c0 -23 3 -27 10 -15 9 13 11 13 20 0 8 -12 10 -11 10 8 0
15 -4 21 -11 16 -6 -3 -15 0 -20 7 -6 10 -9 5 -9 -16z"/>
<path d="M1161 666 c-1 -28 0 -28 17 -13 10 10 21 15 24 12 2 -3 5 2 5 10 0
13 -3 13 -18 -1 -16 -14 -18 -14 -22 3 -3 11 -5 7 -6 -11z"/>
<path d="M1225 680 c-3 -5 -1 -18 5 -27 10 -16 10 -15 5 4 -4 15 -1 23 12 26
16 4 16 5 1 6 -9 0 -20 -3 -23 -9z"/>
<path d="M1281 663 c0 -25 1 -26 9 -8 12 27 12 35 0 35 -5 0 -10 -12 -9 -27z"/>
<path d="M1327 683 c-3 -5 -1 -17 4 -28 7 -17 8 -17 8 8 1 27 -4 34 -12 20z"/>
<path d="M1390 665 c0 -16 4 -25 8 -20 4 6 14 10 22 10 8 0 18 -4 22 -10 4 -5
8 0 8 12 0 12 -4 25 -10 28 -5 3 -10 -1 -10 -9 0 -21 -10 -20 -26 2 -12 15
-13 14 -14 -13z"/>
<path d="M1478 683 c7 -3 16 -2 19 1 4 3 -2 6 -13 5 -11 0 -14 -3 -6 -6z"/>
<path d="M1522 665 c0 -16 2 -22 5 -12 2 9 2 23 0 30 -3 6 -5 -1 -5 -18z"/>
<path d="M1552 660 c0 -19 2 -27 5 -17 2 9 2 25 0 35 -3 9 -5 1 -5 -18z"/>
<path d="M1582 665 c0 -16 2 -22 5 -12 2 9 2 23 0 30 -3 6 -5 -1 -5 -18z"/>
<path d="M1618 683 c7 -3 16 -2 19 1 4 3 -2 6 -13 5 -11 0 -14 -3 -6 -6z"/>
<path d="M1668 665 c2 -14 6 -25 7 -25 1 0 5 11 7 25 3 16 1 25 -7 25 -8 0
-10 -9 -7 -25z"/>
<path d="M1711 658 c1 -18 3 -25 6 -15 5 19 23 24 23 5 0 -6 3 -8 7 -5 3 4 -3
16 -15 27 l-22 21 1 -33z"/>
<path d="M1796 682 c7 -4 14 -16 17 -27 4 -18 5 -18 6 3 1 25 21 31 21 6 0 -8
5 -12 10 -9 6 4 8 10 5 15 -3 5 3 10 12 12 10 3 -4 5 -32 6 -27 1 -45 -2 -39
-6z"/>
<path d="M1901 663 c2 -24 2 -25 6 -5 2 12 8 22 13 22 5 0 11 -10 13 -22 4
-20 4 -19 6 5 1 21 -4 27 -19 27 -15 0 -20 -6 -19 -27z"/>
<path d="M1960 666 c0 -29 17 -43 33 -27 9 9 8 11 -5 6 -11 -4 -18 -2 -18 4 0
6 7 11 16 11 20 0 13 24 -9 28 -12 3 -17 -4 -17 -22z"/>
<path d="M2058 683 c6 -2 18 -2 25 0 6 3 1 5 -13 5 -14 0 -19 -2 -12 -5z"/>
<path d="M2134 682 c19 -8 19 -9 -2 -14 -22 -6 -31 -28 -11 -28 5 0 7 5 4 10
-3 6 0 10 9 10 8 0 17 -6 20 -12 2 -7 3 -2 2 12 -2 16 -10 26 -22 27 -18 3
-18 2 0 -5z"/>
<path d="M2207 683 c-3 -5 -1 -17 4 -28 7 -17 8 -17 8 8 1 27 -4 34 -12 20z"/>
<path d="M2241 663 c1 -22 2 -23 6 -8 3 11 10 23 17 27 7 5 5 8 -6 8 -13 0
-18 -7 -17 -27z"/>
<path d="M2288 683 c6 -2 18 -2 25 0 6 3 1 5 -13 5 -14 0 -19 -2 -12 -5z"/>
<path d="M2336 682 c7 -4 14 -16 16 -27 3 -17 5 -15 10 8 4 23 2 27 -16 27
-13 0 -16 -3 -10 -8z"/>
<path d="M2444 675 c-3 -8 -4 -20 -1 -27 3 -7 6 -3 6 9 1 12 9 24 19 26 16 4
16 5 -1 6 -10 0 -20 -6 -23 -14z"/>
<path d="M2497 683 c-3 -5 0 -17 4 -28 9 -18 9 -18 5 3 -3 14 1 22 9 22 8 0
16 -10 18 -22 4 -20 4 -19 6 5 1 21 -4 27 -18 27 -11 0 -22 -3 -24 -7z"/>
<path d="M2591 658 c0 -27 2 -29 8 -13 5 11 7 23 4 28 -2 4 0 7 6 7 5 0 12
-10 14 -22 4 -20 4 -19 6 5 1 21 -4 27 -19 27 -16 0 -20 -6 -19 -32z"/>
<path d="M2651 663 c2 -24 2 -25 6 -5 5 26 20 29 26 5 4 -14 5 -12 6 5 1 16
-5 22 -19 22 -15 0 -20 -6 -19 -27z"/>
<path d="M2717 683 c-4 -3 -7 -16 -7 -27 0 -17 2 -18 9 -6 6 8 7 18 5 22 -3 4
-1 8 5 8 5 0 12 -6 14 -12 3 -8 6 -6 6 5 1 17 -19 23 -32 10z"/>
<path d="M2772 653 l1 -38 4 33 c3 25 8 32 19 28 9 -3 12 -1 9 4 -3 6 -13 10
-21 10 -10 0 -14 -11 -12 -37z"/>
<path d="M2843 684 c9 -3 15 -10 12 -15 -4 -5 -1 -9 5 -9 19 0 5 25 -16 27
-16 2 -16 1 -1 -3z"/>
<path d="M2887 658 c-6 -43 1 -50 9 -10 8 38 24 43 24 8 0 -14 5 -28 12 -32 8
-5 9 -2 5 10 -4 10 -7 26 -7 37 0 12 -7 19 -19 19 -13 0 -20 -9 -24 -32z"/>
<path d="M790 661 c0 -6 4 -13 10 -16 6 -3 7 1 4 9 -7 18 -14 21 -14 7z"/>
<path d="M1251 654 c0 -11 3 -14 6 -6 3 7 2 16 -1 19 -3 4 -6 -2 -5 -13z"/>
<path d="M1300 660 c0 -5 5 -10 11 -10 5 0 7 5 4 10 -3 6 -8 10 -11 10 -2 0
-4 -4 -4 -10z"/>
<path d="M1460 655 c0 -8 2 -15 4 -15 2 0 6 7 10 15 3 8 1 15 -4 15 -6 0 -10
-7 -10 -15z"/>
<path d="M1628 663 c7 -3 16 -2 19 1 4 3 -2 6 -13 5 -11 0 -14 -3 -6 -6z"/>
<path d="M2051 663 c0 -6 -4 -20 -7 -30 -5 -14 -4 -15 5 -7 7 7 11 20 8 30 -3
11 -5 14 -6 7z"/>
<path d="M2306 655 c4 -8 8 -15 10 -15 2 0 4 7 4 15 0 8 -4 15 -10 15 -5 0 -7
-7 -4 -15z"/>
<path d="M2390 653 c0 -15 2 -16 10 -3 9 13 11 13 21 0 9 -13 10 -13 6 0 -6
22 -37 25 -37 3z"/>
<path d="M2826 655 c4 -8 8 -15 10 -15 2 0 4 7 4 15 0 8 -4 15 -10 15 -5 0 -7
-7 -4 -15z"/>
<path d="M2076 644 c-3 -8 -2 -13 3 -9 5 3 12 -1 14 -7 4 -8 6 -7 6 4 1 23
-15 32 -23 12z"/>
<path d="M2170 650 c0 -5 4 -10 9 -10 6 0 13 5 16 10 3 6 -1 10 -9 10 -9 0
-16 -4 -16 -10z"/>
</g>
</svg>
