<?xml version="1.0" standalone="no"?>
<!DOCTYPE svg PUBLIC "-//W3C//DTD SVG 20010904//EN"
 "http://www.w3.org/TR/2001/REC-SVG-20010904/DTD/svg10.dtd">
<svg version="1.0" xmlns="http://www.w3.org/2000/svg"
 width="415.000000pt" height="602.000000pt" viewBox="0 0 415.000000 602.000000"
 preserveAspectRatio="xMidYMid meet">

<g transform="translate(0.000000,602.000000) scale(0.100000,-0.100000)"
fill="#000000" stroke="none">
<path d="M1029 5616 c-7 -11 -6 -116 1 -116 6 0 10 9 10 20 0 14 7 20 23 20
13 0 28 5 35 12 14 14 16 44 3 53 -8 4 -70 14 -72 11z m59 -38 c-2 -15 -10
-23 -23 -23 -13 0 -21 8 -23 23 -3 18 1 22 23 22 22 0 26 -4 23 -22z"/>
<path d="M1383 5613 c-20 -7 -17 -109 3 -117 29 -11 55 12 52 47 -2 27 -8 33
-30 35 -32 4 -38 22 -9 22 11 0 23 5 26 10 6 10 -20 12 -42 3z m41 -58 c8 -23
-4 -45 -25 -45 -13 0 -19 7 -19 23 0 37 32 53 44 22z"/>
<path d="M2053 5585 c2 -37 4 -40 34 -43 23 -2 33 -9 36 -25 2 -12 4 7 4 43 0
36 -2 48 -4 28 -3 -29 -9 -38 -22 -38 -23 0 -37 17 -44 50 -3 14 -4 8 -4 -15z"/>
<path d="M1213 5583 c-21 -8 -16 -71 6 -83 32 -17 51 -2 51 40 0 44 -20 59
-57 43z m42 -43 c0 -16 -6 -26 -18 -28 -19 -4 -32 20 -23 44 9 25 41 13 41
-16z"/>
<path d="M1546 5577 c-12 -9 -17 -23 -14 -42 3 -26 8 -30 36 -33 18 -2 32 1
32 8 0 6 -10 8 -25 4 -18 -4 -25 -2 -25 9 0 8 6 15 13 14 37 -1 46 4 40 21
-12 32 -31 38 -57 19z m44 -17 c0 -5 -9 -10 -20 -10 -11 0 -20 5 -20 10 0 6 9
10 20 10 11 0 20 -4 20 -10z"/>
<path d="M1713 5583 c-9 -3 -13 -25 -12 -66 1 -34 4 -52 6 -39 3 13 10 21 16
19 42 -15 67 62 28 83 -11 5 -21 10 -23 9 -2 0 -9 -3 -15 -6z m39 -30 c7 -27
-2 -43 -23 -43 -14 0 -19 7 -19 30 0 23 5 30 19 30 10 0 21 -8 23 -17z"/>
<path d="M2248 5583 c-28 -7 -21 -21 7 -15 14 2 25 0 25 -6 0 -6 -10 -12 -22
-14 -15 -2 -24 -11 -26 -25 -3 -20 1 -23 32 -23 34 0 36 2 36 33 0 30 -15 59
-29 56 -4 -1 -14 -3 -23 -6z m32 -63 c0 -5 -9 -10 -20 -10 -11 0 -20 5 -20 10
0 6 9 10 20 10 11 0 20 -4 20 -10z"/>
<path d="M1863 5573 c12 -3 17 -15 17 -39 0 -19 5 -34 10 -34 6 0 10 15 10 34
0 19 6 37 13 39 6 3 -6 5 -28 5 -22 0 -32 -2 -22 -5z"/>
<path d="M2400 5556 c0 -13 -3 -32 -7 -42 -4 -12 -3 -15 5 -10 7 4 12 21 12
37 0 41 32 36 37 -6 6 -45 13 -43 13 3 0 40 -1 42 -30 42 -25 0 -30 -4 -30
-24z"/>
<path d="M2570 5551 c0 -17 -4 -33 -10 -36 -5 -3 -10 -14 -10 -23 0 -12 3 -13
12 -4 16 16 65 15 72 0 4 -7 4 -2 1 12 -2 14 -5 37 -5 53 0 23 -4 27 -30 27
-27 0 -30 -3 -30 -29z m50 -11 c0 -23 -4 -30 -20 -30 -16 0 -20 7 -20 30 0 23
4 30 20 30 16 0 20 -7 20 -30z"/>
<path d="M2730 5540 c0 -47 12 -51 37 -13 l18 27 6 -29 c6 -25 7 -23 8 15 l0
45 -24 -27 c-30 -34 -34 -35 -27 -3 2 15 0 25 -7 25 -6 0 -11 -17 -11 -40z"/>
<path d="M2900 5540 c0 -22 5 -40 10 -40 6 0 10 9 10 19 0 25 31 21 41 -5 5
-13 7 -4 7 26 0 25 -2 37 -5 28 -5 -22 -43 -24 -43 -3 0 8 -4 15 -10 15 -5 0
-10 -18 -10 -40z"/>
<path d="M3070 5541 c0 -48 8 -51 35 -15 l20 27 6 -29 c6 -25 7 -24 8 14 0 23
-1 42 -4 42 -3 0 -17 -12 -31 -27 -24 -26 -25 -27 -21 -6 3 13 1 26 -4 29 -5
3 -9 -13 -9 -35z"/>
<path d="M620 5062 c-6 -2 -10 -66 -10 -163 l0 -159 25 0 c28 0 29 5 30 175
l0 90 68 3 67 3 0 -136 0 -135 24 0 c32 0 36 21 35 185 0 132 -1 135 -22 135
-12 1 -64 2 -115 3 -50 1 -97 1 -102 -1z"/>
<path d="M970 5057 c-44 -22 -61 -71 -58 -169 3 -80 5 -89 32 -117 52 -54 161
-51 206 6 26 33 25 50 -1 58 -16 5 -28 0 -46 -19 -30 -33 -84 -35 -113 -6 -16
16 -20 33 -20 94 0 69 2 76 27 96 34 27 79 21 108 -14 16 -19 25 -22 43 -15
12 4 22 14 22 21 -1 18 -31 53 -57 67 -29 15 -112 14 -143 -2z"/>
<path d="M1225 5062 c-3 -3 -5 -77 -5 -164 l0 -158 28 0 c24 0 36 14 100 112
l72 112 0 -112 0 -112 30 0 30 0 0 159 c0 166 -2 174 -43 163 -17 -4 -94 -110
-142 -193 l-20 -36 4 112 3 112 -26 5 c-14 3 -28 3 -31 0z"/>
<path d="M1527 5062 c-3 -4 16 -42 43 -82 56 -84 57 -69 -16 -173 -42 -58 -42
-67 -4 -67 25 0 36 9 66 55 20 30 40 55 43 55 3 0 21 -25 39 -55 30 -50 37
-55 68 -55 19 0 34 3 34 7 0 4 -22 39 -50 79 -27 40 -50 75 -50 78 0 4 21 38
47 76 25 39 44 72 42 74 -5 5 -30 9 -49 7 -8 -1 -28 -24 -45 -51 -16 -27 -32
-50 -35 -50 -3 0 -20 23 -38 50 -17 28 -39 50 -46 50 -8 0 -21 3 -29 6 -8 3
-17 1 -20 -4z"/>
<path d="M1885 5061 c-48 -20 -60 -48 -63 -150 -2 -82 0 -101 17 -128 30 -49
110 -66 175 -39 55 23 66 48 66 153 0 107 -10 136 -55 158 -35 16 -107 19
-140 6z m123 -68 c7 -10 12 -47 12 -92 0 -88 -14 -111 -68 -111 -58 0 -72 21
-72 110 0 76 9 102 40 113 24 10 74 -2 88 -20z"/>
<path d="M2198 5062 l-28 -3 0 -87 c0 -101 -13 -158 -41 -175 -39 -25 -15 -74
28 -54 40 18 64 78 70 178 l6 89 43 0 43 0 3 -132 3 -133 28 -3 28 -3 -3 162
-3 162 -75 1 c-41 1 -87 0 -102 -2z"/>
<path d="M2505 5061 c-49 -21 -60 -48 -63 -150 -2 -82 0 -101 17 -128 46 -74
202 -65 231 13 6 14 10 65 10 114 0 84 -2 92 -29 122 -25 28 -35 32 -87 35
-32 1 -68 -1 -79 -6z m122 -62 c9 -8 13 -37 13 -92 0 -95 -13 -117 -68 -117
-58 0 -72 21 -72 109 0 42 4 81 8 87 22 33 86 40 119 13z"/>
<path d="M2770 5062 c-6 -2 -10 -64 -10 -163 l0 -159 30 0 30 0 0 135 0 135
70 0 c68 0 70 1 70 25 0 17 -6 26 -17 27 -38 3 -163 3 -173 0z"/>
<path d="M3013 5063 c-10 -4 -13 -46 -13 -164 l0 -159 29 0 c25 0 36 11 89 93
33 50 66 104 73 119 12 24 14 13 11 -92 l-4 -120 31 0 31 0 0 159 c0 132 -3
160 -15 165 -8 3 -22 3 -30 0 -16 -6 -145 -196 -145 -214 0 -5 -3 -10 -7 -10
-5 0 -8 50 -8 112 0 114 -4 124 -42 111z"/>
<path d="M3384 5062 c-66 -9 -93 -123 -40 -168 l25 -22 -29 -61 c-17 -34 -30
-63 -30 -66 0 -3 15 -5 33 -5 30 0 34 4 59 60 25 57 28 60 62 60 l36 0 0 -60
0 -60 30 0 30 0 0 160 c0 88 -3 160 -7 160 -104 4 -152 4 -169 2z m116 -97 l0
-45 -44 0 c-61 0 -76 8 -76 39 0 39 17 51 72 51 l48 0 0 -45z"/>
<path d="M1073 4582 l-53 -3 0 -160 0 -159 99 0 c84 0 102 3 125 21 22 17 26
28 26 69 0 37 -5 52 -19 62 -17 12 -17 16 -5 33 8 10 14 35 14 55 0 69 -48 90
-187 82z m111 -58 c10 -4 16 -18 16 -35 0 -32 -23 -43 -81 -37 -32 3 -34 6
-36 41 l-1 37 43 0 c24 0 50 -3 59 -6z m7 -134 c25 -14 25 -56 -1 -70 -12 -6
-40 -10 -63 -8 -41 3 -42 4 -43 38 -1 19 1 38 3 43 6 11 81 9 104 -3z"/>
<path d="M1393 4582 l-33 -3 0 -87 c0 -101 -13 -158 -41 -175 -20 -13 -24 -33
-10 -56 7 -11 14 -10 39 4 43 26 63 76 69 177 l6 88 46 0 46 0 -3 -135 -3
-135 30 0 31 0 0 160 c0 88 -3 160 -7 160 -64 4 -145 4 -170 2z"/>
<path d="M1658 4582 c-16 -3 -18 -19 -18 -163 l0 -159 28 0 c24 0 36 14 100
112 l72 112 0 -112 0 -112 30 0 30 0 0 159 c0 154 -1 159 -21 164 -28 8 -58
-24 -129 -140 l-55 -89 4 112 c3 116 0 126 -41 116z"/>
<path d="M2034 4582 c-49 -5 -79 -44 -79 -104 0 -40 4 -53 24 -69 l24 -20 -27
-54 c-33 -68 -33 -75 4 -75 26 0 33 7 58 58 26 52 31 57 65 60 l37 3 0 -60 0
-61 30 0 30 0 0 160 c0 121 -3 160 -12 161 -76 3 -128 3 -154 1z m106 -97 l0
-45 -55 0 c-49 0 -57 3 -67 25 -18 39 12 65 74 65 l48 0 0 -45z"/>
<path d="M2278 4582 c-16 -3 -18 -19 -18 -163 l0 -159 30 0 30 0 0 64 c0 72 0
73 80 71 l55 0 3 -68 c3 -67 3 -67 32 -67 l30 0 0 160 0 160 -30 0 -30 0 0
-65 0 -65 -70 0 -70 0 0 64 c0 65 -7 76 -42 68z"/>
<path d="M2593 4583 c-10 -3 -13 -46 -13 -164 l0 -159 29 0 c25 0 36 12 95
100 36 55 66 104 66 109 0 5 3 12 8 14 4 3 5 -46 3 -109 l-3 -114 31 0 31 0 0
159 c0 149 -1 159 -20 164 -10 3 -25 0 -33 -7 -16 -12 -87 -117 -124 -180
l-23 -41 0 111 c0 93 -3 113 -16 118 -9 3 -16 6 -17 5 -1 0 -8 -3 -14 -6z"/>
<path d="M2970 4580 c-47 -11 -70 -42 -70 -96 0 -31 7 -51 24 -71 l24 -28 -29
-57 c-16 -32 -29 -60 -29 -63 0 -3 15 -5 34 -5 31 0 35 4 59 60 25 57 28 60
62 60 l35 0 0 -60 0 -60 30 0 30 0 0 160 0 160 -54 0 c-30 0 -60 2 -68 4 -7 2
-29 0 -48 -4z m108 -97 l-3 -48 -35 2 c-68 5 -80 11 -80 41 0 40 17 52 73 52
l48 0 -3 -47z"/>
<path d="M2019 4010 c-143 -24 -249 -144 -257 -291 -3 -46 1 -84 13 -118 21
-63 39 -83 69 -75 15 3 45 -6 86 -27 54 -27 73 -32 141 -32 68 -1 85 3 142 32
39 20 75 31 92 29 25 -3 32 3 54 42 22 39 26 57 26 130 -1 73 -5 93 -28 137
-67 129 -197 196 -338 173z m167 -110 c48 -31 73 -57 95 -105 33 -71 20 -184
-28 -237 -14 -16 -35 -18 -182 -18 l-166 0 -22 34 c-64 99 -45 225 46 303 64
56 186 66 257 23z"/>
<path d="M2015 3838 c-101 -55 -121 -170 -43 -245 60 -58 154 -54 214 8 26 27
29 37 29 99 0 59 -3 72 -25 95 -45 49 -127 70 -175 43z m105 -98 c25 -25 25
-51 2 -80 -35 -43 -112 -17 -112 38 0 56 69 83 110 42z"/>
<path d="M1708 3973 c-55 -14 -57 -16 -82 -72 -38 -85 -53 -194 -37 -277 17
-93 35 -134 60 -134 11 0 42 -24 71 -54 57 -61 156 -117 239 -136 33 -8 90
-11 147 -8 80 4 103 10 169 41 51 24 98 57 140 98 40 38 70 59 79 56 20 -8 31
9 51 78 25 84 23 203 -5 285 -32 95 -40 105 -109 122 -64 16 -74 13 -42 -16
10 -9 34 -49 52 -89 31 -66 34 -80 34 -167 0 -76 -5 -105 -22 -142 -18 -38
-25 -46 -42 -41 -15 4 -34 -6 -67 -37 -87 -80 -222 -121 -333 -102 -76 14
-157 52 -213 101 -24 22 -55 41 -68 43 -39 5 -61 80 -57 193 4 99 25 161 77
227 44 54 45 54 -42 31z"/>
<path d="M1464 3878 c-50 -25 -54 -41 -53 -193 0 -127 33 -251 64 -248 14 1
33 -17 62 -57 49 -68 158 -161 225 -193 26 -12 47 -25 48 -28 0 -3 -27 -14
-60 -24 l-60 -18 -73 56 c-78 60 -132 119 -185 201 -18 28 -40 51 -49 51 -29
0 -55 104 -60 242 l-5 123 -44 -32 c-41 -29 -44 -34 -44 -78 0 -66 26 -210 49
-267 12 -32 25 -49 38 -51 11 -2 38 -30 62 -66 41 -62 121 -144 191 -197 l35
-26 -44 -23 c-52 -26 -60 -24 -134 47 -71 67 -117 124 -162 198 -19 33 -43 60
-51 60 -23 0 -74 168 -74 244 0 17 -4 31 -9 31 -15 0 -71 -70 -71 -88 0 -31
28 -136 56 -210 21 -59 30 -71 44 -67 13 4 29 -12 63 -62 26 -38 67 -90 92
-117 25 -27 45 -51 45 -53 0 -2 -306 -3 -680 -3 l-680 0 0 -1515 0 -1515 2075
0 2075 0 0 1515 0 1515 -685 2 -685 3 33 35 c33 35 122 151 143 186 9 15 14
17 26 7 12 -11 17 -8 28 15 22 48 58 158 70 217 l12 57 -38 39 -38 39 -13 -77
c-8 -43 -23 -106 -34 -141 -17 -51 -24 -62 -38 -57 -13 4 -24 -7 -45 -44 -36
-67 -143 -197 -201 -245 l-47 -39 -44 21 c-24 12 -44 25 -44 29 0 5 16 19 35
32 48 32 154 146 190 204 21 34 35 46 48 43 12 -3 22 5 32 24 25 48 54 168 61
253 l6 82 -40 33 c-23 17 -43 32 -46 32 -3 0 -6 -42 -7 -92 0 -119 -35 -264
-62 -262 -11 1 -32 -19 -58 -57 -50 -73 -148 -175 -211 -217 l-47 -32 -61 17
c-64 19 -73 28 -37 37 62 16 210 139 264 219 20 30 34 41 49 39 32 -5 65 104
71 238 7 144 -3 179 -62 208 -25 12 -47 22 -49 22 -2 0 3 -24 11 -52 21 -74
20 -219 -1 -297 -19 -74 -19 -73 -44 -75 -11 0 -37 -24 -59 -51 -83 -105 -202
-181 -330 -211 -103 -24 -248 -15 -338 21 -95 38 -185 104 -247 181 -29 35
-60 64 -69 64 -44 0 -74 225 -45 338 24 95 25 93 -40 60z m779 -792 c37 -7 70
-16 73 -19 3 -3 -14 -12 -37 -19 -92 -28 -485 -11 -455 20 29 28 306 40 419
18z m-482 -88 c55 -22 75 -38 47 -38 -7 0 -36 -11 -65 -24 l-52 -24 -50 26
c-28 15 -51 29 -51 32 1 8 83 49 99 49 7 1 40 -9 72 -21z m755 -2 l46 -24 -48
-28 c-42 -25 -50 -26 -83 -16 -67 20 -111 37 -111 42 0 7 111 48 133 49 10 1
38 -10 63 -23z m-1041 -52 l34 -25 -76 -72 c-41 -40 -95 -99 -118 -132 -43
-60 -125 -214 -125 -234 0 -25 -16 -7 -38 41 l-22 51 41 76 c22 42 59 100 82
130 39 51 174 191 184 191 2 0 19 -12 38 -26z m1312 -46 c80 -79 143 -160 192
-251 37 -68 38 -84 10 -139 l-21 -41 -38 81 c-54 115 -131 221 -218 303 l-76
70 30 24 c16 14 33 24 38 25 4 0 42 -33 83 -72z m-549 6 c94 -19 107 -29 56
-43 -126 -34 -350 -32 -451 3 l-37 13 64 16 c96 24 97 25 198 26 51 0 128 -6
170 -15z m-579 -63 l44 -18 -36 -22 c-98 -61 -192 -159 -253 -267 -38 -67 -84
-194 -84 -231 0 -33 -14 -29 -50 17 l-32 40 18 52 c45 138 158 310 253 388 87
70 76 67 140 41z m940 -18 c77 -64 125 -117 178 -196 51 -75 113 -217 113
-257 0 -12 -14 -39 -32 -61 l-32 -40 -17 68 c-23 96 -54 167 -105 244 -47 72
-155 179 -221 219 l-40 25 36 17 c53 24 69 22 120 -19z m-102 -145 c103 -79
200 -237 229 -373 20 -91 17 -117 -16 -142 -46 -37 -58 -38 -54 -6 6 56 -25
187 -62 263 -51 103 -162 214 -265 263 -102 48 -167 61 -290 55 -88 -4 -116
-10 -180 -37 -136 -57 -229 -141 -294 -263 -45 -85 -63 -144 -71 -235 -4 -40
-9 -73 -11 -73 -2 0 -20 12 -39 28 -29 23 -34 33 -34 68 0 23 10 77 23 120 44
154 138 284 265 367 94 63 126 72 190 58 70 -15 302 -13 377 2 60 13 60 13
120 -21 33 -18 83 -52 112 -74z m-292 -43 c224 -59 385 -296 358 -526 -5 -43
-8 -48 -50 -68 -25 -12 -47 -20 -49 -18 -3 2 1 28 7 58 26 121 -16 261 -106
358 -61 66 -118 98 -207 118 -235 53 -467 -120 -485 -361 -3 -44 -1 -94 6
-121 7 -26 9 -50 6 -53 -3 -3 -25 4 -50 16 -40 19 -44 25 -51 67 -27 181 87
403 251 488 110 56 251 72 370 42z m-30 -176 c77 -26 148 -88 185 -164 20 -41
25 -65 25 -135 0 -73 -4 -92 -28 -137 -22 -43 -33 -53 -59 -58 -18 -3 -55 -9
-83 -14 -27 -5 -51 -8 -52 -7 -2 2 14 14 34 27 108 70 135 211 62 322 -107
162 -367 108 -409 -85 -18 -88 22 -186 96 -233 24 -16 43 -29 42 -31 -2 -1
-38 4 -82 10 -89 15 -104 27 -132 110 -22 65 -15 175 15 234 57 111 161 176
288 181 18 0 62 -9 98 -20z m-37 -163 c47 -25 74 -62 79 -110 7 -58 -1 -87
-33 -125 -98 -117 -294 -9 -254 139 10 39 52 87 88 102 29 12 92 9 120 -6z
m172 -491 c0 -8 -11 -17 -25 -21 -14 -3 -25 -10 -25 -14 0 -4 11 -11 25 -14
14 -4 25 -13 25 -21 0 -12 -9 -11 -47 6 -27 11 -55 27 -63 36 -13 14 -12 15
10 10 17 -4 36 0 55 13 37 23 45 24 45 5z m-455 -12 c-11 -29 -11 -35 1 -40 6
-2 15 6 18 19 l7 23 9 -22 c14 -35 34 -29 26 8 -7 35 12 37 25 2 12 -32 -10
-51 -60 -55 -40 -3 -45 -1 -51 22 -7 27 4 60 21 60 7 0 8 -7 4 -17z m273 -100
c-3 -35 -5 -38 -43 -45 -62 -10 -75 -3 -75 43 l0 39 61 0 60 0 -3 -37z m-190
-23 c1 0 2 -6 2 -14 0 -7 -25 -22 -55 -33 -44 -17 -55 -18 -55 -7 0 8 5 14 10
14 6 0 10 11 10 25 0 14 -4 25 -10 25 -5 0 -10 7 -10 15 0 13 8 12 53 -5 28
-11 53 -20 55 -20z m373 25 c8 -8 -3 -75 -12 -75 -5 0 -9 14 -9 30 0 17 -4 30
-10 30 -5 0 -10 -11 -10 -24 0 -30 -23 -50 -49 -41 -21 6 -29 27 -23 63 4 19
10 22 56 22 29 0 55 -2 57 -5z m-192 -89 c21 -26 9 -69 -21 -80 -42 -15 -82 3
-86 37 -5 39 14 57 58 57 21 0 43 -6 49 -14z m191 -56 c0 -22 -4 -40 -10 -40
-5 0 -10 11 -10 25 0 14 -4 25 -10 25 -5 0 -10 -9 -10 -20 0 -11 -7 -20 -15
-20 -8 0 -15 9 -15 19 0 11 -4 23 -10 26 -6 4 -10 -7 -10 -25 0 -18 -5 -30
-11 -28 -6 2 -10 7 -10 11 1 4 1 21 1 37 0 30 1 30 55 30 l55 0 0 -40z m-370
20 c0 -5 -22 -10 -48 -10 -37 0 -49 -4 -49 -15 0 -11 12 -15 49 -15 26 0 48
-4 48 -10 0 -5 -20 -10 -44 -10 -41 0 -66 -13 -52 -27 3 -3 24 -6 47 -7 56 -1
66 -26 11 -26 -22 0 -54 -3 -71 -6 -20 -4 -31 -3 -31 5 0 6 7 11 15 11 12 0
15 13 15 60 l0 60 55 0 c30 0 55 -4 55 -10z m110 -79 c0 -6 -4 -13 -10 -16
-15 -10 -12 -35 5 -35 8 0 15 9 15 20 0 11 5 20 10 20 6 0 10 -9 10 -20 0 -11
7 -20 15 -20 18 0 20 21 3 38 -17 17 -2 28 17 12 20 -17 19 -57 -2 -67 -10 -5
-36 -8 -58 -8 -36 0 -40 2 -43 28 -2 16 -1 35 2 43 6 16 36 19 36 5z m188 -17
c21 -15 25 -15 41 0 22 20 31 20 31 2 0 -8 -9 -18 -20 -21 -11 -3 -20 -11 -20
-16 0 -5 9 -9 20 -9 11 0 20 -4 20 -10 0 -5 -9 -10 -20 -10 -26 0 -25 -8 3
-30 12 -10 19 -22 15 -26 -4 -4 -15 -1 -23 6 -13 11 -23 11 -51 1 -44 -16 -54
-8 -20 14 31 21 33 35 6 35 -11 0 -20 5 -20 10 0 6 9 10 20 10 11 0 20 4 20 9
0 5 -9 13 -20 16 -11 3 -20 13 -20 21 0 18 10 18 38 -2z m-298 -64 c0 -5 -13
-10 -30 -10 -38 0 -38 -10 0 -32 45 -26 37 -38 -25 -38 -30 0 -55 5 -55 10 0
6 15 10 33 10 l32 0 -32 21 c-51 32 -43 49 22 49 30 0 55 -4 55 -10z m95 -30
c3 -5 26 -10 51 -10 l44 0 0 -39 0 -38 -67 -6 c-63 -5 -94 0 -65 10 14 5 17
73 2 73 -5 0 -10 5 -10 10 0 6 9 10 19 10 11 0 23 -4 26 -10z m185 -60 c0 -5
20 -10 45 -10 l45 0 0 -40 0 -40 -43 0 c-24 0 -48 -5 -54 -11 -13 -13 -43 -5
-43 11 0 5 6 10 14 10 10 0 14 11 13 35 -1 22 -6 35 -14 35 -7 0 -13 5 -13 10
0 6 11 10 25 10 14 0 25 -4 25 -10z m-280 -37 c0 -9 -16 -13 -48 -13 -37 0
-49 -4 -49 -15 0 -11 12 -15 49 -15 26 0 48 -4 48 -10 0 -5 -20 -10 -44 -10
-30 0 -46 -5 -50 -15 -4 -12 4 -15 44 -15 28 0 50 -4 50 -10 0 -5 -20 -10 -44
-10 -25 0 -48 -4 -51 -10 -8 -12 -45 -13 -45 -1 0 5 7 11 15 15 11 4 15 21 15
63 l0 59 55 0 c38 0 55 -4 55 -13z m188 -65 c2 -22 -1 -38 -7 -38 -6 0 -11 11
-11 25 0 16 -6 25 -15 25 -8 0 -15 -9 -15 -20 0 -11 -4 -20 -10 -20 -5 0 -10
9 -10 20 0 11 -7 20 -15 20 -9 0 -15 -9 -15 -25 0 -14 -4 -25 -10 -25 -5 0
-10 18 -10 40 l0 41 58 -3 57 -3 3 -37z m137 -38 c26 -11 45 -25 43 -31 -4
-13 -99 -51 -107 -44 -2 3 1 11 7 17 15 15 16 58 2 58 -5 0 -10 5 -10 10 0 14
12 13 65 -10z m-135 -40 c0 -5 -17 -10 -37 -10 l-38 0 38 -27 c20 -14 37 -30
37 -35 0 -4 -27 -8 -60 -8 -66 0 -83 17 -22 22 l37 3 -37 22 c-21 12 -38 27
-38 33 0 6 25 10 60 10 33 0 60 -4 60 -10z m-192 -40 c1 0 2 -6 2 -12 0 -7
-25 -23 -55 -34 -43 -17 -55 -18 -55 -8 0 8 5 14 10 14 6 0 10 11 10 25 0 14
-4 25 -10 25 -5 0 -10 7 -10 15 0 13 8 12 53 -5 28 -11 53 -20 55 -20z m220 5
c0 -26 -12 -33 -23 -15 -8 13 1 40 13 40 5 0 10 -11 10 -25z m150 -40 c-2 -5
-15 -10 -30 -10 -36 0 -35 -6 2 -28 40 -24 39 -43 -2 -41 -18 1 -46 2 -61 3
-39 1 -24 21 16 21 l32 0 -32 21 c-52 33 -43 51 22 47 31 -2 54 -7 53 -13z
m29 -52 c-4 -17 -4 -17 -12 0 -4 9 -4 25 0 35 8 16 8 16 12 0 3 -10 3 -26 0
-35z m-219 5 c17 -17 15 -53 -3 -68 -20 -17 -32 -5 -15 15 19 23 5 45 -30 45
-35 0 -49 -22 -30 -45 17 -20 5 -32 -15 -15 -18 15 -20 66 -2 73 24 10 83 7
95 -5z m-178 -17 c0 -6 -15 -11 -32 -13 l-33 -3 33 -20 c49 -30 41 -45 -23
-45 -30 0 -55 4 -55 9 0 13 25 20 52 14 18 -4 15 1 -14 21 -21 15 -38 31 -38
36 0 6 25 10 55 10 30 0 55 -4 55 -9z m32 -36 c-2 -14 -8 -25 -13 -25 -5 0 -9
11 -9 25 0 14 6 25 14 25 9 0 12 -8 8 -25z m158 -85 c0 -40 -13 -53 -24 -25
-4 10 -20 15 -51 15 -25 0 -45 5 -45 10 0 6 23 10 50 10 38 0 50 4 50 15 0 8
5 15 10 15 6 0 10 -18 10 -40z m-189 -17 c9 -24 -16 -67 -33 -57 -6 4 -6 10 1
17 6 6 11 19 11 29 0 14 -8 18 -35 18 -31 0 -39 -7 -37 -30 0 -3 4 -13 7 -23
5 -13 3 -16 -8 -11 -19 7 -28 50 -13 68 24 31 94 24 107 -11z m189 -87 c0 -26
-5 -36 -20 -41 -11 -3 -23 -4 -28 -1 -4 2 -14 1 -22 -4 -25 -15 -50 8 -50 45
l0 35 60 0 60 0 0 -34z m-192 -43 l3 -43 -55 1 c-40 1 -56 6 -56 15 0 8 9 14
20 14 11 0 20 4 20 10 0 5 -9 14 -20 20 -33 18 -23 25 33 25 l52 0 3 -42z
m192 -33 c0 -6 -11 -16 -25 -22 -32 -14 -31 -22 1 -36 14 -7 23 -16 20 -21 -7
-10 -116 39 -116 52 0 5 8 7 18 5 10 -3 34 3 53 13 40 21 49 23 49 9z m0 -119
c0 -6 -17 -11 -37 -13 l-38 -3 38 -23 c20 -13 37 -28 37 -33 0 -5 -27 -9 -60
-9 -66 0 -83 17 -22 22 l37 3 -37 23 c-21 13 -38 28 -38 33 0 5 27 9 60 9 33
0 60 -4 60 -9z m28 -36 c0 -26 -12 -33 -23 -15 -8 13 1 40 13 40 5 0 10 -11
10 -25z m1496 -76 c28 -22 51 -20 95 8 17 11 22 12 19 2 -5 -14 -164 -98 -186
-99 -8 0 -11 6 -8 13 2 6 10 31 17 55 13 47 25 51 63 21z m106 -29 c0 -5 -30
-24 -67 -42 -91 -43 -90 -43 -73 -25 8 9 42 30 75 46 71 35 65 33 65 21z m-65
-71 c-63 -32 -69 -34 -60 -19 10 16 99 59 109 53 5 -3 -17 -19 -49 -34z"/>
<path d="M2049 2216 c-35 -17 -46 -58 -25 -90 28 -43 98 -31 110 20 13 52 -38
94 -85 70z"/>
<path d="M2030 1690 c0 -11 7 -20 15 -20 8 0 15 9 15 20 0 11 -7 20 -15 20 -8
0 -15 -9 -15 -20z"/>
<path d="M2080 1691 c0 -12 6 -21 16 -21 9 0 14 7 12 17 -5 25 -28 28 -28 4z"/>
<path d="M1870 1660 c0 -5 7 -10 16 -10 8 0 12 5 9 10 -3 6 -10 10 -16 10 -5
0 -9 -4 -9 -10z"/>
<path d="M2220 1660 c0 -13 5 -20 13 -17 6 2 12 10 12 17 0 7 -6 15 -12 18 -8
2 -13 -5 -13 -18z"/>
<path d="M2043 1593 c-7 -2 -13 -13 -13 -24 0 -15 7 -19 35 -19 23 0 38 6 42
16 10 25 -29 42 -64 27z"/>
<path d="M2030 1330 c0 -18 5 -21 38 -18 25 2 37 8 37 18 0 10 -12 16 -37 18
-33 3 -38 0 -38 -18z"/>
<path d="M2220 1270 c0 -16 7 -20 35 -20 28 0 35 4 35 20 0 16 -7 20 -35 20
-28 0 -35 -4 -35 -20z"/>
<path d="M2240 1150 c0 -5 7 -10 15 -10 8 0 15 5 15 10 0 6 -7 10 -15 10 -8 0
-15 -4 -15 -10z"/>
<path d="M1870 1090 c0 -5 7 -10 16 -10 8 0 12 5 9 10 -3 6 -10 10 -16 10 -5
0 -9 -4 -9 -10z"/>
<path d="M2030 770 c0 -11 7 -20 15 -20 8 0 15 9 15 20 0 11 -7 20 -15 20 -8
0 -15 -9 -15 -20z"/>
<path d="M2080 769 c0 -24 23 -21 28 4 2 10 -3 17 -12 17 -10 0 -16 -9 -16
-21z"/>
<path d="M1896 753 c-12 -12 -6 -33 9 -33 8 0 15 6 15 14 0 17 -14 28 -24 19z"/>
<path d="M3610 458 c0 -7 -3 -24 -7 -37 l-6 -23 29 18 c16 10 31 19 33 21 5 4
-31 32 -41 33 -5 0 -8 -6 -8 -12z"/>
</g>
</svg>
